<svg xmlns="http://www.w3.org/2000/svg" viewBox="0 0 48 48"><path d="M7,1A4,4,0,0,0,3,5V47H37V5a4,4,0,0,1,4-4ZM21,17H19a3,3,0,0,1-3-3V13a3,3,0,0,1,3-3V9a1,1,0,0,1,2,0v1c3,0,3.92,4,2,4a1,1,0,0,1-1-1,1,1,0,0,0-1-1H19a1,1,0,0,0-1,1v1a1,1,0,0,0,1,1h2a3,3,0,0,1,3,3v1a3,3,0,0,1-3,3v1a1,1,0,0,1-2,0V22c-3,0-3.92-4-2-4a1,1,0,0,1,1,1,1,1,0,0,0,1,1h2a1,1,0,0,0,1-1V18A1,1,0,0,0,21,17ZM31,42H9a1,1,0,0,1,0-2H31A1,1,0,0,1,31,42Zm0-5H9a1,1,0,0,1,0-2H31A1,1,0,0,1,31,37Zm0-5H9a1,1,0,0,1,0-2H31A1,1,0,0,1,31,32Z"/><path d="M42,3a3,3,0,0,0-3,3V9h6V6A3,3,0,0,0,42,3Z"/></svg>