<svg xmlns="http://www.w3.org/2000/svg" enable-background="new 0 0 32 32" viewBox="0 0 32 32"><path d="M30 19h-4c-.553 0-1-.448-1-1V5c0-.552.447-1 1-1s1 .448 1 1v12h3c.553 0 1 .448 1 1S30.553 19 30 19zM25 25c0 1.657-1.343 3-3 3s-3-1.343-3-3 1.343-3 3-3S25 23.343 25 25z"/><path d="M22,20c0.342,0,0.677,0.035,1,0.101V19c0-1.654-1.346-3-3-3h-1.621l-1.894-8.837C16.094,5.33,14.449,4,12.575,4H7C6.447,4,6,4.448,6,5v8H5c-1.654,0-3,1.346-3,3v5c0,1.095,0.444,2.087,1.159,2.81C3.696,21.629,5.655,20,8,20c2.757,0,5,2.243,5,5h4C17,22.243,19.243,20,22,20z M12.535,16l-1.703-2.555C10.646,13.167,10.334,13,10,13H8V6h4.575c0.937,0,1.759,0.665,1.955,1.581L16.334,16H12.535z"/><path d="M11,25c0,1.657-1.343,3-3,3s-3-1.343-3-3s1.343-3,3-3S11,23.343,11,25z"/></svg>