<svg xmlns="http://www.w3.org/2000/svg" viewBox="0 0 32 32"><g data-name="task deadline"><path d="M26,21H23V18a1,1,0,0,0-2,0v4a1,1,0,0,0,1,1h4a1,1,0,0,0,0-2Z"/><path d="M22,14a8.24,8.24,0,0,0-2,.25V3a1,1,0,0,0-1-1H3A1,1,0,0,0,2,3V25a1,1,0,0,0,1,1H15.08A8,8,0,1,0,22,14Zm-9,7H6a1,1,0,0,1,0-2h7a1,1,0,0,1,0,2Zm1-3H6a1,1,0,0,1,0-2h8a1,1,0,0,1,0,2Zm0-3H6a1,1,0,0,1,0-2h8a1,1,0,0,1,0,2Zm0-3H6a1,1,0,0,1,0-2h8a1,1,0,0,1,0,2Zm1-3H6A1,1,0,0,1,6,7h9a1,1,0,0,1,0,2Zm7,19a6,6,0,0,1-2-11.65A5.8,5.8,0,0,1,22,16a6,6,0,0,1,0,12Z"/></g></svg>